<svg width="17" height="23" viewBox="0 0 17 23" fill="none" xmlns="http://www.w3.org/2000/svg">
<path opacity="0.2" d="M5.37302 22.2369L6.90687 14.5677L0.771484 12.2669L11.5084 0.763062L9.97456 8.43229L16.1099 10.7331L5.37302 22.2369Z" fill="#FCB1F0"/>
<path d="M16.8567 10.5576C16.8277 10.4347 16.7687 10.3209 16.6851 10.2262C16.6015 10.1316 16.4958 10.059 16.3774 10.015L10.8546 7.9434L12.2599 0.91359C12.2918 0.750255 12.2696 0.581002 12.1968 0.431369C12.124 0.281737 12.0045 0.159845 11.8563 0.0840874C11.7082 0.00832961 11.5394 -0.0171835 11.3755 0.0113981C11.2115 0.0399796 11.0613 0.121105 10.9476 0.242532L0.210636 11.7464C0.123432 11.8383 0.0603474 11.9503 0.0270186 12.0725C-0.00631013 12.1948 -0.00884526 12.3233 0.0196399 12.4468C0.0481251 12.5702 0.106743 12.6847 0.190257 12.7799C0.273772 12.8752 0.379581 12.9482 0.498232 12.9926L6.02295 15.0643L4.6214 22.0864C4.58958 22.2497 4.61174 22.419 4.68455 22.5686C4.75736 22.7183 4.87686 22.8402 5.02502 22.9159C5.17318 22.9917 5.34196 23.0172 5.50589 22.9886C5.66983 22.96 5.82001 22.8789 5.9338 22.7575L16.6707 11.2536C16.7563 11.1617 16.8181 11.0502 16.8505 10.9288C16.8829 10.8075 16.8851 10.68 16.8567 10.5576ZM6.6547 19.7444L7.65841 14.723C7.69434 14.5449 7.66587 14.3598 7.57809 14.2008C7.49031 14.0417 7.34891 13.919 7.17909 13.8545L2.11356 11.9515L10.2257 3.26037L9.22294 8.2818C9.18701 8.45989 9.21548 8.64495 9.30326 8.80401C9.39104 8.96307 9.53244 9.0858 9.70226 9.15034L14.764 11.0485L6.6547 19.7444Z" fill="#FCB1F0"/>
</svg>
